<?xml version="1.0" encoding="UTF-8" standalone="no"?>
<svg
   viewBox="0 0 240 240"
   version="1.1"
   xmlns="http://www.w3.org/2000/svg">
  <circle
     style="fill:#017143;fill-opacity:1;stroke:none;stroke-width:2.66667;stroke-linecap:round;stroke-linejoin:round;stroke-miterlimit:4;stroke-dasharray:none;stroke-opacity:1"
     cx="120"
     cy="120"
     r="120" />
  <path
     d="m 142.83412,91.101431 c 1.57533,0 7.87667,0.0756 11.82,1.047333 1.05933,0.260267 3.63334,0.6448 3.63334,2.582533 0,0.912533 -0.60867,1.720134 -1.874,2.376 -2.52267,1.301067 -6.57467,2.9512 -6.57467,10.146403 0,10.02066 5.568,17.15599 5.568,17.15599 0,0 6.61733,-11.872 6.61733,-19.712 0,-4.50453 -2.47866,-7.050263 -2.47866,-8.934396 0,-1.329334 1.05933,-2.0776 2.56666,-2.0776 0.608,0 1.15333,0.07467 1.99733,0.153067 -0.7776,0.684266 -1.54,1.558 -1.54,3.178933 0,2.978667 2.17734,6.5448 2.17734,12.124 0,10.67493 -7.52534,22.60399 -7.52534,22.60399 0,0 8.24934,-1.09733 12.94,-5.39334 0.34534,-0.31186 0.76134,-0.57333 1.216,-0.57333 0.87067,0 1.59267,0.76 1.59267,1.824 0,0.864 -0.3808,1.52267 -1.064,2.05467 -4.65067,3.73333 -11.87734,6.46933 -11.87734,6.46933 h 0.0405 c -0.68333,2.65867 -1.444,5.80267 -2.31466,9.424 h -0.044 c -0.49067,-0.088 -1.064,-0.108 -1.62934,-0.108 -3.936,0 -6.228,2.112 -10.32933,2.112 -1.976,0 -4.44267,-0.36667 -7.13067,-0.36667 -6.91733,0 -12.484,3.54133 -12.484,10.56933 0,6.364 5.1,9.312 5.1,9.312 0,0 -5.73333,-3.43066 -5.73333,-9.14933 0,-5.02267 4.03066,-7.49867 8.43066,-7.49867 4.04,0 7.98134,0.74933 12.876,0.74933 3.936,0 5.57734,-1.064 5.57734,-3.17733 0,-2.56933 -5.0596,-2.21467 -5.0596,-2.21467 0,0 -12.97334,0.34667 -12.97334,-9.51467 0,-9.16 9.67867,-9.84933 9.67867,-9.84933 h -0.284 c -5.21733,0 -11.06933,1.48266 -14.556,3.58933 -0.492,0.29867 -0.87066,0.472 -1.36933,0.472 -0.87067,0 -1.59267,-0.76 -1.59267,-1.824 0,-0.76267 0.304,-1.396 0.98,-1.87467 4.22934,-2.97733 12.116,-4.88 17.32,-4.88 0,0 -9.24,-7.76933 -9.24,-18.468669 0,-6.744 4.30934,-11.229867 4.30934,-13.1144 0,-0.949867 -0.56534,-1.805867 -1.93867,-2.632 1.12267,0.04667 2.17734,0.08533 3.06267,0.08533 2.36533,0 3.516,-0.576 5.11066,-0.576 0.736,0 1.52134,0.08667 2.48667,0.4776 -1.48267,0.749333 -2.68933,1.928 -2.68933,3.6496 0,5.4336 7.22534,14.7752 7.22534,14.7752 0,0 7.224,-9.3416 7.224,-14.7752 0,-1.7216 -1.20667,-2.900267 -2.688,-3.649467 0.96533,-0.391467 1.75066,-0.478133 2.48666,-0.478133 1.59467,0 2.744,0.576 5.11067,0.576 0.88667,0 1.94533,-0.03867 3.068,-0.08533 -1.37334,0.826133 -1.94,1.682133 -1.94,2.632 0,1.884533 4.308,6.3704 4.308,13.1144 0,10.699339 -9.24,18.468669 -9.24,18.468669 0,0 5.51334,-0.67733 10.184,-2.84667 1.08534,-0.504 2.10534,-0.76 3.096,-0.76 z M 150.06078,38.46 c 0,0 -5.06667,4.4248 -11.7,4.4248 h -1.096 c -4.56,0 -11.16533,-3.3512 -16.84533,-3.3512 -3.60267,0 -7.47467,0.9904 -10.616,2.6968 -7.06134,3.8352 -10.764,10.4776 -10.764,19.3328 0,19.5768 17.81467,27.1248 17.81467,27.1248 0,0 -19.54667,8.6552 -19.54667,28.5976 0,6.2328 2.39467,14.5504 8.79067,19.9464 4.536,3.8304 9.97466,5.704 14.44,5.704 h 0.604 c 5.58533,0 9.78,-2.2776 9.78,-2.2776 0,0 5.17333,2.9032 12.59466,2.9032 h 1.14934 c 13.53866,0 24.93066,-8.9432 24.93066,-23.2424 0,-11.1656 -9.03866,-18.5856 -9.03866,-18.5856 0,0 10.708,-7.1368 10.708,-22.8056 0,-12.0344 -7.63467,-25.8936 -17.336,-34.0728 -4.31734,-3.6536 -7.784,-5.3824 -3.88,-5.3824 z"
     style="fill:#ffffff;fill-opacity:1;fill-rule:nonzero;stroke:none;stroke-width:0.666667" />
</svg>